<svg width="49" height="56" viewBox="0 0 49 56" fill="none" xmlns="http://www.w3.org/2000/svg">
<path fill-rule="evenodd" clip-rule="evenodd" d="M20.1633 13.3448C12.0715 13.3448 5.51155 19.9045 5.51155 27.9966C5.51155 36.0885 12.0713 42.6482 20.1633 42.6482V48.1598C9.02746 48.1598 0 39.1323 0 27.9964C0 16.8605 9.02746 7.83307 20.1633 7.83307V13.3446V13.3448Z" fill="#0000FF"/>
<path d="M20.1634 37.4617C25.3908 37.4617 29.6285 33.224 29.6285 27.9965C29.6285 22.7691 25.3908 18.5314 20.1634 18.5314C14.9359 18.5314 10.6982 22.7691 10.6982 27.9965C10.6982 33.224 14.9359 37.4617 20.1634 37.4617Z" fill="#0000FF"/>
<path fill-rule="evenodd" clip-rule="evenodd" d="M20.1501 0C27.8298 0.0355658 34.7791 3.16223 39.8173 8.20055C44.8844 13.2677 48.0185 20.2679 48.0185 28C48.0185 35.4201 45.1319 42.1657 40.4208 47.1762L35.9032 40.2699C38.5275 36.8771 40.0895 32.6211 40.0895 27.9998C40.0895 22.4572 37.8429 17.4393 34.2106 13.8069C30.6072 10.2036 25.64 7.96443 20.1499 7.92903V0L20.1501 0ZM20.1501 48.0711C23.7644 48.0478 27.1519 47.069 30.0731 45.3749L34.4185 52.0179C30.246 54.5252 25.3667 55.9758 20.1501 56V48.071V48.0711Z" fill="#0000FF"/>
</svg>
